<?xml version="1.0" encoding="utf-8"?>
<!-- Generator: Adobe Illustrator 19.2.1, SVG Export Plug-In . SVG Version: 6.00 Build 0)  -->
<svg version="1.1" id="layer" xmlns="http://www.w3.org/2000/svg" xmlns:xlink="http://www.w3.org/1999/xlink" x="0px" y="0px"
	 viewBox="0 0 652 652" style="enable-background:new 0 0 652 652;" xml:space="preserve">
<style type="text/css">
	.st0{fill:#F3D14E;}
	.st1{fill:#CE2F34;}
	.st2{fill:#B24E40;}
	.st3{fill:#CD3238;}
	.st4{fill:#FFFFFF;}
	.st5{fill:#366BA8;}
	.st6{fill:none;stroke:#FFFFFF;stroke-width:0.9012;stroke-linecap:round;stroke-linejoin:round;stroke-miterlimit:2.613;}
</style>
<g>
	<path class="st0" d="M358.4,79.3c-0.3,2.2-1.9,2.8-4.4,1.4l-2.5-0.8c-0.5-0.3-1.1,0.3-0.8,1.4l1.1,0.8c0.3,0.3,0,1.1-0.8,1.9
		l-4.1-3.3l-0.9,0.9l-2.2-1.4l0.8,1.1c-0.2,1.4-1.4,1.7-3,0.8l-4.4-0.3c-0.3-1.6-0.3-3,0-4.4c0.5-1.4,1.1-2.2,2.2-2.5l1.4,1.1
		l-1.9,3.6l3-3l0.6,0.6c-0.3-1.7,0-2.5,0.8-2.8l1.1,0.8c-0.6-0.8-0.6-1.6,0-2.8c0.2-0.2-0.3-0.8-1.4-0.8c-0.6,1.4-1.7,1.9-2.8,1.9
		h-3c-2.8-0.6-4.1,0.5-4.4,2.8l-4.4,0.8l-4.4-0.6c-1.1,0.6-5,1.9-11.6,3.9c-4.9,1.4-8.3,3-9.6,5.2l-0.8-1.1l-1.9,3.3l-1.9-1.7
		l0.8-1.1l-1.1,0.8l-0.9-0.8l-1.6,3.3c-2.2-1.1-4.1-1.4-6.4-0.9c-2.8,0.9-4.6,1.1-6,1.1c0,2.2-0.3,3.6-1.1,3.9l-4.9-0.9
		c-0.8,0.6-1.4,1.7-1.9,3.8c-0.8-0.8-1.1-1.4-1.1-1.9c-2.7,0.3-5.2,1.2-7.4,2.8c-2.3,1.6-5,2.5-7.7,2.8c-1.4,1.1-4.4,2.8-9.1,4.9
		c-3.6,1.4-6.1,3.6-8,5.8l-1.1-1.9l-2.5,5c-0.8-0.3-1.1-0.9-0.8-1.7c-0.6,0-1.9,0.3-4.1,1.7l-3.3,1.9l-5.8,1.9l0.3,2.5
		c0.2,1.1,0,1.7-0.6,2.2c-0.8,0-1.1-0.5-1.4-1.6l-0.3-2.2l-1.4,3.3l-1.4-1.1c1.1,1.1,1.4,2.5,1.4,4.1c0,1.4-0.3,2.8-1.4,3.8
		c-3,1.1-5.5,0.5-6.9-1.1c0.6-1.7,1.4-1.9,2.2-1.4c1.1,0.5,1.9,0.5,2.5-0.3v-0.9c-0.6-0.8-1.4-0.8-2.8-0.8l-2.8,3.8
		c-0.9,1.9-1.4,3.6-1.4,4.4c-0.8-0.3-1.1-1.1-1.4-1.9l-0.3-2.8l-4.4,3.9c-1.9,1.6-3.6,3.3-4.1,4.9l1.1,0.8c0-1.9,0.2-2.8,0.5-3
		l1.1,0.8l0.2,3.6c0.3,1.4-0.2,2.5-0.5,3c-0.9-1.4-1.9-2.5-3.8-3.3c-2.2-0.9-3.6-0.6-4.4,0.5c1.9-0.5,2.5-0.3,2.2,1.1V139h0.9
		c1.4,0.5,1.9,1.6,1.9,3.3v3.3l-6.3-3.8c-2.8-1.7-5-1.9-6.9-0.9l0.8,1.7l1.1,1.4c0.6,1.1,0.3,1.9-1.1,2.8l-0.8-0.6
		c0,1.1-0.9,1.7-1.9,2.5l-1.9,1.1c-0.9,0.5-1.1,0.8-0.9,1.7l-2.5-0.3l1.7,1.4l-0.3,0.2c17.6,1.7,35.8,5,54.5,9.9
		c17.6,4.7,37.1,11.3,58.6,19.8c23.9,9.3,36.3,14.3,37.7,14.8l36,14.3c20.6,8,39.3,14.6,56.1,19.3c14.8,4.1,29.1,7.2,43.2,9.1
		l-0.3,0.9l14.6,1.4l0.6-0.3l9.3,0.6l1.1,0.2c20.3,1.1,39.8-0.5,58-4.4l-1.7-6.1l-1.1-2.8c-2.8-9.1-8-18.7-15.1-28.3
		c-3.8-4.7-11-12.7-21.4-24.5l-3-0.6l-1.4-2.2c-1.8-2.6-3.9-5-6.3-7.2c-4.1-3.8-6.9-6.6-8.3-8.3l-0.6,1.1l-4.6-5.5l-0.6,1.4
		c0-1.9-0.8-2.8-2.8-2.8c-1.9,0-3.3-0.2-3.6-1.6c1.1-1.1,1.1-1.9,0-2.2c-1.4-0.5-1.9-0.8-2.5-1.1c0.3,0.6,0,1.1-0.8,1.7
		c-1.1-0.9-1.9-2.8-2.5-5.5c-0.3-2.2-1.4-3.6-3.3-3.6l-0.5,2.2c-1.9,0.5-2.8,0-2.8-1.4v-1.4c0-0.3-0.3-0.3-0.6,0l-0.8,1.1L459,134
		l-0.8,0.8c-0.6-1.1-1.4-1.6-3-1.4c-1.4,0-2.2-0.8-2.5-2.8l-0.6,1.1l-4.4-3.6c0.3,0.7,0.1,1.6-0.6,1.9l-1.1,1.4l-1.1-0.9l-0.3-2.2
		c0-0.8,0.3-1.4,0.8-1.9l-1.7,0.2c0.3,0.9,0.3,1.7-0.2,2.8l-1.1,2.2c-2.5,0.2-4.9-1.4-6.3-5h-1.1l-3,0.6l-0.6,0.3l2.8,1.4
		c0,1.1,0.6,1.7,1.1,2.2l2.5,0.6c2.5,0.3,3.3,1.9,3,4.9c0.5,0.3,1.4-0.3,2.8-1.4h3l-0.8,1.9l-1.1-0.9c1.1,1.1,0.8,2.2-1.1,2.8
		l-1.1,0.3h1.7l1.1,0.9l-4.4,4.4c-0.9,0.9-2.2,0.9-3.9,0l-4.1-2.2l0.3,2.2c0.3,0.9,0,1.7-1.1,1.9c-1.7-0.9-2.8-1.9-3-3.8v-1.7
		c-0.5-0.3-1.4-0.3-2.5,0c-0.6,0.3-1.1,0-1.7-0.6c-1.1,0.6-2.5-0.2-3.8-2.2c-1.9-2.5-3.6-3.8-4.6-4.4l0.8-1.4l2.2,1.7l-0.5-4.4h-1.4
		c-1.9,0.3-2.8,0.6-3.3,1.1l-0.3,0.3l-4.9-3.6l2.2,2.8c-0.8-0.3-1.4,0.8-2.5,3.3c-0.5,2.5-1.4,3.6-2.5,3c-1.7,1.4-3,1.1-3.6-1.1
		l-1.9-4.9l-3,0.5l-2.8-0.8l-0.8,1.9l-0.9,1.1c-1.6,0.2-2.8,0-3-0.9l1.4-2.8c0.5-1.1,0-2.2-1.1-2.8l-2.5,5.2l-1.7-4.6
		c-0.3-1.4-1.3-2.5-2.8-2.8l1.7,3.3c0.9,1.4,0.6,2.5,0,3.3c-3.3-0.3-4.9-2.2-4.4-5.5c-1.6,0.3-2.5,0.6-2.8,1.4l-2.2-1.7h-3
		c-1.7-1.4-2.8-1.6-3.8-1.1c0.3,0.6,0,1.1-0.8,1.9l-1.1-0.9c0.3-3-0.8-4.1-3-3.6c-0.3-0.6-0.9-0.6-2.2-0.6c-0.8,0.3-1.4-0.2-1.1-1.9
		l-2.5-0.3l-2.8-0.9c-1.9-0.2-3.3,0.3-4.4,2.2l-3.3-3.6l-0.9,2.2l-2.8-1.1c-1.4-0.3-1.7-1.1-1.4-2.5l-1.7,2.2
		c-1.1,0.3-2.8-0.3-5.2-2.2l-2.2-2.2c-0.9,1.1-1.9,1.7-3,1.7l-3.6-0.6l-0.5,0.9l-1.7-2.2c0.5,1.4,0,2.5-1.4,3.8l-3.3-3.8l0.3,2.2
		c0.3,0.8,0,1.6-0.6,1.9c-1.9-1.1-2.8-2.5-2.8-4.4l-1.9,0.3c-0.9,0-1.4-0.3-1.9-1.1l0.9-1.7c-0.4,0.7-1.2,1.1-1.9,1.1l-1.1-2.2
		l1.9-0.8l-1.4-1.1l-1.4,3c-1.9,0-2.8-0.5-2.8-1.9c0.3-2.5,0.3-3.8,0-4.4l-0.5,6c-0.3,2.8-0.9,4.4-1.9,5.8l-2.5-3.6l-3.3,4.1
		c-0.6,0.3-1.1-0.3-1.1-1.4v-0.3c-0.5,0.8-1.6,0.6-3-0.6c-1.4-0.8-1.9-0.2-1.9,1.1l-2.5-2.8c-0.9-1.1-1.9-1.4-3.3-0.6v1.1l3-0.3
		l0.8,1.7l-1.9,1.7l-1.4,1.4c-1.1,0.8-2.2,0.3-4.1-1.1l0.8-1.1l-3-1.7c-0.8,0.8-1.4,1.4-1.9,1.4c-0.9-0.9-1.4-1.4-1.1-1.9l-2.8,0.3
		c0,0.6-0.3,1.4-0.9,2.2l-3.6-2.5l-3.6-1.7l-0.3-2.2c-0.3-0.8,0-1.4,0.5-1.9c1.1,0.9,1.4,1.4,1.4,1.9l1.9-0.3l-0.3-1.9
		c2.2,0.5,4.1-0.3,5.5-2.2c1.9-2.8,3.6-4.4,4.4-4.6l4.4,4.1l2.5-3l1.1,1.4l0.3-1.4l1.1-4.1c1.7-0.3,2.5,0,3,0.8
		c0.3,1.4,0,2.2-0.6,2.8l1.7-1.1c-1.7-1.7-1.1-2.8,1.1-2.8c2.5,0,3.6-0.6,3.3-1.7l3.3,4.4c1.1,1.4,2.5,2.2,4.1,2.8l-3.9-2.8
		c-0.5-2.2,0-3.8,1.4-4.9l4.1-3.3c0.6,0,1.1,0.8,1.4,2.2v0.6v-1.9l1.4-2.2l2.2,2.8c1.9-1.7,3-1.1,3.3,1.1l0.3,1.9
		c0,0.5,0.3,0.3,0.8-0.6l-0.5-3.8l1.1-1.4c0.3-0.8,0.9-1.1,1.4-0.8c1.7,0.5,2.2,1.1,2.2,2.5c-0.2,1.1-0.8,1.9-1.6,2.2
		c2.2,1.4,3.6,0.9,4.1-1.7l1.1-5.5c1.4,1.1,2.2,2.2,2.5,3.6l0.3,4.9l2.8-2.5c0.8,0.6,1.1,1.1,1.1,1.9c0.3-0.9,0.8-0.6,1.4,1.1
		c0.6,1.1,0.9,1.4,0.9,0.5l-1.4-2.8c1.1-0.8,2.2-1.4,2.8-1.6c0.8,0,1.6,0.2,3,1.1l-1.6,1.9l-1.1-0.8c0.3,1.7,0.6,2.5,1.4,2.8
		c0.9-0.8,1.4-1.1,1.7-1.1l-1.1-0.9l3.3-5.2l2.2,2.5c0-1.4,0-2.5,0.5-2.8c0.9,0.3,1.4,0.6,1.4,1.7l0.3,2.2l-1.9,0.8
		c0.8,0.3,1.1,0.8,1.1,1.7l0.3,2.2l0.8-1.1l1.7,0.3l0.3,0.3l-0.3-2.5c1.9,0,3-1.1,3.3-3l0.3-2.8v-1.9c0.6,2.8,0.6,4.9,0,6.3l-3,3.9
		l1.1,1.1l4.1,0.3c1.4,0.2,2.2,0,2.2-1.9l4.1,4.4l1.1-1.1l1.1-0.3l-0.5-3.6l-1.1-1.1h1.1v1.1l2.2,1.6c0.9,0.3,1.1,0.9,0.9,1.4
		l-0.3,2.2l1.4-0.3c-0.6-0.3-0.9-0.9-0.6-1.4l0.6-2.2c2.8-2.8,6.6-1.9,11.5,1.7c0.7-0.3,1.5-0.3,2.2,0l2.2,1.4v1.7
		c0.3,0.8,0,1.1-0.3,1.4l-1.6,0.3c0.2,0.3,1.3,0.5,3,0.3l0.9-1.9c1.4,0.3,2.2,1.4,1.6,2.5c-0.2,1.7,0,2.8,0.9,3.3
		c1.1,0.2,2.5,0,3.3-1.1c1.1-1.4,1.9-1.9,3.3-1.9c0.9,0.8,1.1,1.7,1.1,2.2h6.9l-1.7,1.9c1.4,1.1,2.5,1.7,3,1.1l2.5-2.5
		c0.6,0.3,1.1,0.8,1.1,1.7l0.2,0.8l1.9-0.3h1.4l-1.7-1.6l3.8-7.2c0.6,0.8,1.1,1.1,1.7,1.1c0.3-0.3,1.1-0.3,1.7,0.3
		c0,0.5,1.4,1.1,4.1,1.1l0.5,0.3l-1.3-3.6c0.8,0,1.9,0.9,2.5,2.8l-0.6,0.9c1.7,0.3,2.2,1.1,1.7,2.8l3-0.3c0.5-0.3,0.8,0.3,1.1,1.4
		v0.3v-0.9l1.1-1.4c0.3-0.5,0.8-0.8,1.4-0.8l1.4,1.9c0.9,0.8,1.7,1.1,3.3,0.2c1.4-0.5,2.2-0.2,2.5,0.9l-0.3-2.5
		c0-1.1,0.3-1.9,0.8-2.5l1.9,1.9c-0.6,1.1-0.6,1.9-0.6,2.2c2.2-0.8,3-0.2,2.8,1.4l-0.5,1.7l1.4,0.3l1.9-0.3l2.2-0.5
		c1.4-0.3,2.5,0.5,2.8,3l1.7-0.2v-1.1c-4.4-4.1-11-8.5-19.5-12.6c-7.4-3.8-14.6-6.6-21.4-8.8c-4.1-2.4-8.6-4.1-13.2-4.9
		c-6.9-1.7-11.2-3-13.2-3.6l1.1,0.9l-1.4,1.9c-1.1-0.5-1.4-1.4-1.4-1.9c-0.8,1.7-1.9,1.9-3,0.8c-1.1-1.1-1.6-1.4-1.9-1.1l-2.5,3.3
		l-2.5-4.4c-0.9-0.3-1.4,0-1.4,1.1c-0.2,0.8-0.5,1.7-1.1,1.7c-0.2-2.5-1.6-3.6-3.8-3.3C360.8,81.2,358.9,80.7,358.4,79.3
		 M342.7,89.8l1.4-2.2l-1.4-1.4l-1.1,0.9l-0.9-1.9l7.4,1.1v5.5l-1.9-5.2L342.7,89.8z M356.8,92.2c-0.6,0-1.1,0.3-1.7,1.1l-1.4-11.6
		L356.8,92.2z M360.8,91.7l-1.6-2.8h3.6c1.7,0,2.5-0.8,2.2-2.5c1.1,1.7,0.6,2.8-0.8,3.3C362,90.6,360.8,91.2,360.8,91.7 M329.5,90.3
		h0.9l-1.4,3L329.5,90.3z M336.9,88.4v-0.6l-0.3-2.2c1.9,0.8,2.8,2.2,2.5,3.8l-1.1-2.2L336.9,88.4z M336.4,89.8v0.8l-1.9-2.2v-0.3
		L336.4,89.8z M334.2,87.5c-0.5-0.8-0.3-1.9,0.5-2.5h0C334.8,86.5,334.8,87.3,334.2,87.5 M368,90l2.2-0.2l-0.9,3L368,90z
		 M375.2,90.3h-1.1l-0.6-3h1.4L375.2,90.3z M379.9,93.9v-1.7h1.1L379.9,93.9z M379.3,96.1l0.3-1.4l1.6,1.4c0.6,0.6,0.9,1.4,0.3,1.9
		l-0.5,1.1C379.9,98.3,379.3,97.2,379.3,96.1 M400.5,105.4l-1.9-2.5l-1.7,3l-0.6-6.6c1.4,0.2,2.8,1.4,4.1,3.3l1.4-1.4
		c0.3-0.5,0.6-0.8,0.3-1.4l4.1,3.3l1.1-1.4l0.9,1.1l-2.5,2.2l0.8,0.9c-0.6,0-1.1,0.3-1.9,1.1l0.3,1.1l-1.4-3.8L400.5,105.4z
		 M388.4,106l-1.9,0.2l1.6-2.2L388.4,106z M470.6,143.9h2.2c0.3,1.7,0,2.8-0.8,3.3c-1.1,0.6-1.9,0.3-2.2-1.1
		c-0.3-1.6-0.6-2.5-1.1-2.8L470.6,143.9z M453,138.7c0,0.5,0.3,0.8,0.5,1.4l1.4,1.1l-2.5,2.2L453,138.7z M459.6,152.7l-4.7-2.2
		l4.7,0.6V152.7z M443.4,150.3l0.8-3c0.3,0.6,1.1,0.6,2.8,0.6L443.4,150.3z M462.1,159.6l-1.7,2.8l-3.6-2.8
		c-1.4-1.1-2.2-2.2-1.9-3.8l5.3,5.8L462.1,159.6z M468.1,155.5l-0.3-3c1.7,1.1,1.7,1.9,0.6,2.8L468.1,155.5l0.3,1.7l-1.1-0.8
		C467,156.3,467.3,155.8,468.1,155.5 M436.2,155.8l0.6-5.8c0.5,0.3,0.8,0.9,0.8,1.7l0.3,1.9L436.2,155.8z M464.5,192.3
		c0-0.5,0-1.1-0.5-1.6l-1.7-1.1c-0.6,1.4-0.6,3-0.3,5c0.3,1.4,0,2.2-0.8,3v-2.2l-0.6-2.2c-0.3-1.7,0.3-2.8,1.7-3.6
		c-1.7-0.5-2.2-1.6-1.9-2.8l0.3-1.9c0.6,1.1,1.1,2.2,2.2,2.8l3.6,4.4L464.5,192.3z M440.6,176.1l3.8-5.2l-0.8,4.7L440.6,176.1z
		 M388.1,139.5l-1.9-4.1l3.3,2.5L388.1,139.5z M499.8,192.6l-0.9-6l1.7-0.3l0.8,5.7L499.8,192.6z M247.8,120.6l1.1,0.8
		c1.6,0,2.5-1.6,2.8-4.6c0.2-2.5,1.4-3.3,3-2.8l-1.9,1.9c-0.9,0.6-0.9,1.4-0.3,2.5c2.2,0.8,3.6,0.2,3.8-2.2c0.6-3.3,1.4-4.9,2.2-5.5
		v1.1c2.5-0.8,4.9-0.8,6.9,0c3,1.7,4.9,2.2,6,2.5c1.7,1.1,2.5,2.8,2.2,4.1l-1.1-1.4c-1.7,0.2-1.9,0.8-1.1,1.9
		c0.8,1.1,0.6,1.9-0.6,2.2l-0.5,1.1l-0.3-1.4c-0.5-1.7-1.7-3-3.3-3.3c-0.6,0.3-0.9,1.1-0.9,1.9l0.3,2.2l-1.1-1.1
		c0,1.4-0.6,1.9-1.4,1.7c-0.9,0-1.1,0.3-1.1,1.4v-0.9c-3.3,0-5.5,1.1-6.6,3.9c0-0.9-0.2-1.4-1.1-1.9l-1.4,3.3v0.8v-0.6
		c-0.5-0.8-0.8-1.4-1.1-1.4c-1.9,3.6-4.9,6.4-9.6,7.7l-6.9,0.8c0.8-0.8,1.1-1.9,0.6-3.3c-0.6-1.3-0.6-2.5,0.5-3.6l1.1,1.1l1.9-3
		c0.8-1.4,0.8-2.8,0.3-4.1c0.5-1.1,1.1-1.4,2.2-1.4l2.5,1.1l2.2,0.3C247.8,122.5,248.1,121.6,247.8,120.6 M271.8,101.6l1.4,4.7
		c-1.1,0.2-1.9-0.3-2.2-1.7C270.9,103.5,271.2,102.4,271.8,101.6 M315.2,89.5l-1.1-0.3C314.1,88.4,314.6,88.4,315.2,89.5 M288,98.8
		l1.1,0.8c-1.7,0.3-2.5,0.9-2.8,1.1l-0.8-2.2v0.3l1.4,1.1L288,98.8l-53.9,32.4c0.8,1.1,0.5,1.9-0.3,2.5l1.9,1.7l-3.6,0.6l-0.3-0.9
		c-2.2-0.5-4.1,0-6,1.4c-1.9,1.7-3,3.8-3.6,6.4l-0.8-0.9c-0.9,0.6-1.1,1.1-0.9,2.2l0.3,2.5l-2.8-4.4l-1.4,3c-0.8,0-1.4-0.9-1.4-2.2
		v-3.3c0,1.7,0.6,2.5,1.1,2.8c3-1.9,4.4-3.8,5.2-5.5l-1.1-0.6l3-1.9c1.9-1.4,3.3-2.8,3.8-3.9l0.9,0.6l1.9,0.8
		c2.2,0.6,2.8-0.5,2.2-2.8l1.7,1.9L288,98.8z"/>
	<path class="st0" d="M327.3,114.8l3.6-4.4l-0.8,0.8l-0.9,1.1c-0.8,0.9-1.4,0.6-2.2-0.5l0.3,2.2V114.8z M333.9,113.7l0.3-0.5
		l-1.4-1.1C333.1,112.6,333.4,113.1,333.9,113.7 M365.6,101.6h0.8h-1.1H365.6z M418.9,104.3l0.2,0.3l0.3-0.3H418.9z M405.4,110.7
		c-1.1,0.5-1.6,1.4-1.9,2.5c0.5,0,1.1-0.3,1.9-1.4V110.7z M395,130.5l0.6-1.9C395,129.4,394.7,130.2,395,130.5"/>
	<path class="st1" d="M367.2,211.6l-36-14.3c-1.4-0.6-13.8-5.5-37.7-14.9c-21.5-8.5-41-15.1-58.6-19.8c-18.7-4.9-36.9-8.3-54.5-9.9
		l-8.8-0.8h-0.6l-4.6-0.3h-11.3c-24.2,0.3-47,4.1-67.9,11.8l-6.9,2.8c-9.3,4.4-15.4,9.1-17.9,14.3L49,214.9l-17.6,82.8l-1.1,14.8
		c-0.9,17.6-0.6,34.9,1.1,52l12.1,64.9l2.5,9.1c1.9,5.3,7.2,10.7,16,16.5l6.3,3.6c18.7,9.6,39,16.2,61.3,19.5l-9.6-14.3
		c-3.6-5.2-6.1-10.2-8-14.6l-1.1-1.1h-1.7c1.7,4.4,3.8,8.8,6.9,13.5l9.9,14c-14.8-1.9-30-6.6-45.7-13.5c-19-8-29.7-16.5-32.7-25.3
		l1.1-1.1l6.1-5.7c2.5-1.9,5.5-3.6,9.3-5.3l6.6-2.8l25-2.2l-7.7-1.1l7.7,1.1h1.9v0.3l2.8,0.3l-0.8-1.9l0.8,1.9l66.8,7.4
		c116.1,16.9,188.1,43.9,239.5,61.6c30.8,8.5,59.7,12.7,86.4,12.1c19.8-0.3,38.5-3.3,55.8-8.5c7.7-2.2,14.3-5.2,19.8-8.8
		c5.2-3.3,8.5-6.4,9.9-9.3c0-0.3,0-0.3,0.3-0.3c18.2-40.2,28.9-81.7,31.9-125.4l0.5-9.6c0.9-17.1,0.6-33.5-0.8-49.8l-13.5-72.1
		l-1.4-4.9c-1.1-3.3-3.8-6.9-8.8-11c-5.2-4.4-11.5-8-18.7-11.3c-18.7-8.5-39.6-14-62.1-16.5l1.3,2.2l3,0.5
		c10.5,11.9,17.6,19.8,21.5,24.5c7.1,9.6,12.4,19.2,15.1,28.3l1.1,2.8l1.6,6c-18.1,3.9-37.7,5.5-58,4.4l-1.1-0.3l-9.9-0.2l-14.6-1.4
		l-3-0.3l3,0.3l0.2-0.9c-14-1.9-28.3-4.9-43.2-9.1C406.5,226.2,387.8,219.6,367.2,211.6 M536.6,203.6c-6.9-9.6-14.8-18.7-23.9-27.2
		c15.1,2.2,30.3,6,45.9,12.1c21.2,8.3,33.3,17.6,36.3,28c-4.4,7.2-15.4,13.5-33.3,18.7l-9.9,2.8C550.6,227.5,545.7,216,536.6,203.6z
		 M265.7,269.4l1.9,0.2l-0.6,2.5l-22,78.9c-1.9,6.6-4.1,11-6.6,13.8c-3.3,3.3-7.7,4.6-13.5,4.4l-2.5-0.8l-0.9-4.4
		c-1.1-9.6,0.3-22.5,3.6-38.8c3.3-15.7,9.1-29.2,17.3-40.2C250.6,274,258.3,268.8,265.7,269.4 M527.3,426.7c2.2,0,4.1,1.1,5.5,2.8
		c1.1,1.9,1.4,4.1,0.8,6.3c-0.5,2.2-1.9,4.4-4.4,6.1c-2.2,1.4-4.4,2.2-6.9,1.9c-2.5,0-4.4-1.1-5.5-2.8c-1.1-1.9-1.7-4.1-0.9-6.4
		c0.6-2.5,1.9-4.4,4.1-5.8C522.6,427.2,524.8,426.4,527.3,426.7"/>
	<path class="st2" d="M512.7,176.4c9.1,8.5,17,17.6,23.9,27.2c9.1,12.4,14,23.9,15.1,34.4l9.9-2.8c17.9-5.2,28.9-11.6,33.3-18.7
		c-3-10.5-15.1-19.8-36.3-28.1C542.9,182.5,527.8,178.6,512.7,176.4"/>
	<path class="st3" d="M267.6,269.6l-1.9-0.3c-7.4-0.6-15.1,4.6-23.1,15.7c-8.3,11-14,24.5-17.3,40.2c-3.3,16.2-4.7,29.1-3.6,38.8
		l0.9,4.4l2.5,0.9c5.8,0.2,10.2-1.1,13.5-4.4c2.5-2.8,4.7-7.2,6.6-13.8l22-78.9L267.6,269.6z M532.7,429.4c-1.4-1.6-3.3-2.8-5.5-2.8
		c-2.5-0.3-4.6,0.6-7.2,2.2c-2.2,1.4-3.6,3.3-4.1,5.7c-0.8,2.2-0.2,4.4,0.9,6.4c1.1,1.7,3,2.8,5.5,2.8c2.5,0.3,4.6-0.6,6.9-1.9
		c2.5-1.7,3.8-3.8,4.4-6C534.2,433.6,533.8,431.3,532.7,429.4 M526.2,429.7l3,0.6c0.8,0.5,1.4,1.6,0.8,2.8c-0.2,1.1-0.8,1.9-1.7,2.2
		l-1.6,0.6c0.8,0,1.4,0.5,1.4,1.1c0.5,0.6,0.5,1.1,0.2,1.7l-0.5,1.6v0.9l-1.9-0.3l0.6-1.4c0.3-1.4,0.3-2.2-0.6-2.5l-1.9-0.6
		l-1.7-0.2l-1.4,4.4H519l3-11L526.2,429.7z"/>
	<path class="st1" d="M529.2,430.2l-3-0.6l-4.1-0.2l-3,11h1.9l1.4-4.4l1.7,0.3l1.9,0.5c0.9,0.3,0.9,1.1,0.6,2.5l-0.6,1.4l1.9,0.3
		v-0.8l0.5-1.7c0.3-0.6,0.3-1.1-0.2-1.7c0-0.5-0.6-1.1-1.4-1.1l1.6-0.6c0.9-0.3,1.4-1.1,1.7-2.2C530.6,431.9,530,430.8,529.2,430.2
		 M527.8,431.6c0.3,0.3,0.6,0.8,0.3,1.7c-0.3,0.8-0.9,1.4-1.7,1.6h-3.8l1.1-4.1l1.9,0.2L527.8,431.6z"/>
	<path class="st3" d="M528.1,433.3c0.3-0.8,0-1.4-0.3-1.7l-2.2-0.5l-1.9-0.3l-1.1,4.1h3.8C527.2,434.7,527.8,434.1,528.1,433.3"/>
	<polygon class="st1" points="481.3,241.8 480.8,242.1 490.7,242.4 	"/>
	<path class="st0" d="M197.2,119.2c-1.1,1.1-1.9,1.1-2.5,0.9l-0.3-3l-4.1,1.7l-2.2,3.8l-2.2-1.7c0.6,0.7,0.6,1.8,0,2.5l-1.4,2.5
		l-2.2,0.3c-0.8,0-1.1-0.3-1.7-0.8l0.3,1.9c-1.9,0.6-4.4,2.2-7.4,5.3l-6.9,7.1l-1.1-1.1c0.6,2.5-0.3,4.4-2.2,6.1
		c-2.5,1.9-3.8,3.3-4.1,4.4l-1.1-0.5l-3,3.3h11.3l2.2-2.2l7.2-5.5l-0.9-0.6c0-0.5,0.3-1.1,0.6-1.9l1.4,0.5l1.4-1.9l1.9-1.4
		c0.6-1.1,1.9-2.2,4.4-3.6c2.5-1.1,3.8-2.5,4.4-4.1l1.1,0.8c0.9-1.4,2.5-3.3,5.5-5.8c3.3-2.5,5.5-4.1,6.1-4.9
		c0.3-0.3,0.5,0.3,0.8,1.1v0.3v-0.9c0-1.4,0.9-2.8,3-3.6c1.7-0.8,2.5-1.7,2.2-2.5l-0.2-2.2c-0.3-0.9-0.6-1.4-1.1-1.7l2.5-3
		c0.9,0.6,1.7,1.7,2.2,3.6c1.7-0.8,2.2-1.9,1.4-3.6c-1.1-1.7-1.4-3-1.1-3.3h1.1c0-1.9,0-2.8,0.5-3c1.1,0.8,1.9,1.9,1.7,3.3
		c-0.3,1.9,0,3.3,0.3,4.1c0.6-1.4,1.1-1.9,1.9-1.7l2.8,1.1l6.3-8c1.1-2.2,1.7-4.1,1.7-6.6l-0.3,0.9c-0.3,0.5-0.8,0.5-1.7,0.5
		c-2.2,0-3.6,1.1-4.1,3.3c-0.8-0.6-1.1-1.1-1.1-1.7c-0.3,1.7-1.4,2.5-3.6,3l-5.8,1.7c-1.4,0.5-1.7,1.1-1.1,1.9
		c0.8,0.9,0.5,1.4-0.3,2.2l-1.1-0.9c-1.1,0-1.9,0-3,0.9c-1.4,0.8-1.4,1.1-0.6,1.6l0.9,0.9c0.5,1.4,0.5,1.9-0.3,2.2l-1.9,0.9
		c-0.2,0.5,0.3,1.4,0.9,1.9l-1.7,2.2l-1.9-1.6l1.1-3c0.2-1.1,0.2-2.2,0-3L195,115l3.3,0.3c1.4-0.6,1.9,0,1.7,1.9L197.2,119.2z
		 M223.6,100.8v2.2l-3,0.6c-1.1,0-1.9,0.5-2.8,1.1l1.1-1.9l0.6,0.9c0-1.4,0.8-1.9,2.2-1.7C222.8,101.9,223.4,101.6,223.6,100.8
		 M286.9,105.7l-1.1-1.1v0.3L286.9,105.7z M186.2,146.2V145l-0.5,0.9L186.2,146.2z M186.2,145c0-0.8-0.5-1.7-1.4-2.2l-1.1-0.3
		l1.9,1.4L186.2,145z M171.1,151.9h0.6l-0.6-0.3V151.9z M277.8,445.1l-3-1.1l-0.3,0.5L277.8,445.1z"/>
	<polygon class="st1" points="277.8,445.1 274.5,444.5 202.7,434.7 308.9,455.5 281.7,446.5 	"/>
	<path class="st0" d="M308.9,455.5l-106.2-20.9l-102.3-14.3l10.5,27.7h0.5l0.6,1.1c1.9,4.4,4.4,9.3,8,14.6l9.6,14.3l2.8,4.4l1.1-0.8
		c-0.3,1.1,0.8,3,3,4.9c2.2,2.2,3.3,4.1,3,5.8l2.8,0.8c0.5,0.9,0.2,1.7-0.3,2.8l-1.9,2.2l-9.9-9.6l-3.3,3.3
		c-1.4-0.9-2.4-2.4-2.8-4.1c-0.3-2.2-0.6-3.6-0.9-4.1c-0.2-0.3-0.5-0.3-1.1,0.6c-0.3,0.8-0.8,1.1-1.9,0.8l-1.9-2.2
		c-0.3-0.6-0.6-1.1-0.3-1.7l-0.3,0.3l-1.1-0.8c0.9-2.2,0.3-3.3-1.7-2.8l-2.2,0.2h-1.4c0.6-1.1,0.6-1.6,0-1.6
		c0.3,0.2,0.3,0.8-0.3,1.4c-0.3,0.5-0.8,0.8-1.4,0.2l8.3,5.3c-0.5,0.2-0.8,1.4-0.8,3c1.4,0.3,3,1.7,4.6,3.6l4.1,4.1l3.6-4.4l0.8,0.8
		l-1.1,3c-0.3,1.1-1.1,1.9-2.2,2.2l11.5,9.4l0.8-1.1l2.5,4.4c4.1,2.8,9.1,6.1,15.1,10.7l15.1,11c12.1,8.5,22.6,14.3,31.4,17.1
		l-0.5-1.9c0-0.8,0-1.4,0.8-1.9c1.4,3.6,4.7,6.1,10.2,7.4l6.9,1.7c2.1,0.4,4,1.5,5.5,3c1.1-0.3,1.1-0.9,0.5-1.9
		c-0.5-0.5-0.3-1.1,1.4-1.4c0.6,3,2.8,4.7,5.8,5l3.6,0.2c1.4,0.3,2.2,1.1,3,2.2l0.5-1.1l3.3,2.8l0.8-1.4c1.7,2.2,4.4,3.6,8.5,4.1
		l7.4,0.9c2.5,1.1,4.9,1.7,7.7,2.2h7.2c5.8,0,10.4,1.7,14,4.4c2.2-1.7,4.9-1.9,8.5-1.1c4.4,1.1,7.4,1.4,9.1,1.1l2.2-0.3
		c0.3-0.5,0.8-1.1,1.1-2.2l2.2,1.9c1.4,1.1,2.5,1.1,3.8,0l2.5-2.8l2.5,2.5l2.2-3l7.2,1.7l5.8,0.8c0.6,0.3,0.8,0,0.6-0.8
		c0-0.9,0.2-1.1,1.3-1.1c0.9,0.6,1.1,1.1,1.1,1.7l1.1-1.4c0.6-0.8,0.8-0.8,1.7-0.8l-0.3-2.2c-0.3-0.8,0-1.4,0.6-1.9
		c0.8,1.9,1.9,2.8,3,2.8l4.4,0.5l-0.5-2.2c0-0.8,0.2-1.4,0.8-1.9l2.5,3.9c1.1-1.1,3.3-1.4,6.6-1.1c2.5,0.3,4.7,0.9,6.1,1.7l10.2-4.1
		c4.4-1.4,8.8-1.7,12.9-0.8c-0.3-1.9,0.3-3,1.6-3.3c1.4-0.3,2.2-1.1,2.5-3c0.3,0.6,0.8,1.4,1.6,1.7c1.1,0.3,1.4,1.1,1.7,1.9l1.1-5
		c1.6,0.6,5.5,0,11.2-1.6c2.8-0.9,5.2-1.4,7.4-1.7h-1.1l-7.4-0.9l1.9-1.9c3,0.3,8.5-0.6,16.5-2.5l16.5-3.9c0.6-1.9,3.6-4.4,9.4-7.4
		c6-3,9.3-5.2,10.2-7.2l1.1,0.9c1.4-2.5,5-5.8,10.7-9.6l12.7-8.8l6.3-8.3c-26.7,0.6-55.5-3.6-86.3-12.1
		c-11.9-3.3-24.5-7.4-38.5-12.7l-2.2-0.8l2.8-0.3L308.9,455.5z M173,465.2v1.1c0.3,1.4,0.8,2.5,1.4,2.8l-0.9,1.4
		c1.9,1.7,3,2.8,3.3,3.3h-2.2l-1.9-1.4l-0.6,0.8v-1.4C172.8,469,173,466.8,173,465.2z M179.1,477.3l0.9-1.9c0.8,0.3,1.4,1.7,2.2,3.8
		c0.6,1.4,1.7,1.7,3.3,1.4l-1.1,1.1l6.9,6.9v0.8v-0.3c-0.3-0.8-0.9-1.4-1.4-1.1c-0.3,0.8-0.6,2.5-0.3,4.7c0.3,1.4-0.6,2.2-2.5,2.2
		c-2.2-1.1-2.8-2.5-1.9-4.1l3-3.8c-1.4,0.3-2.2-0.3-2.2-1.9c-0.2-1.7-0.8-2.8-2.2-2.2c-1.1,0.5-1.4,1.4-0.3,2.8l0.6,0.8l-1.7,0.3
		c-1.1-0.6-1.7-1.4-0.8-1.9c0.8-1.4,1.1-2.5,1.1-2.8l-4.4-5.5L179.1,477.3z M192.6,493.2l0.2-0.3l-0.2-1.6l1.9-0.3l-1.7,1.9l0.3,0.9
		l2.5,2.2l1.1-1.4v-0.3v1.4c0.5,1.7,1.1,2.8,2.2,3.6l0.6-0.3c-0.3,0.3-0.3,0.3,0,0.8l2.2,1.1c1.9,1.1,2.8,2.2,2.2,3.3l0.6-0.8
		l-0.3,3c0-0.9-0.3-1.4-0.6-1.7l-0.5-0.6l-5.5-0.3c-0.8-0.8-0.8-2.2-0.3-4.6L194,497l-0.3,5.8c-0.9-1.9-0.9-3.6-0.6-5.8v-3.3
		L192.6,493.2z M172.2,476.2c1.1,0.5,1.7,0.8,2.2,0.8l0.3,3C173.3,479.2,172.5,477.8,172.2,476.2 M167,478.6l-2.5-2.2l2.2,0.2
		L167,478.6z M217.1,505.1c0.8,0.2,1.1,0.8,1.1,1.6l0.5,2.2l-1.4-1.9C217.6,507,217.6,506.2,217.1,505.1 M215.4,513.8h-0.3
		c-1.7-1.9-2.5-3.3-2.5-4.4c2.2,0.3,3.3,0.6,4.1,1.4L215.4,513.8z M219,513.5l6.1,1.4l-3.6,0.3C220,515.5,219.2,514.9,219,513.5
		 M231.6,515.2l-0.9,3c-0.2,1.1-1.1,1.1-2.5,0c-0.8-1.4-0.5-1.9,0.9-2.2C230.5,516,231.3,515.8,231.6,515.2 M235.7,516.6
		c1.4,0.9,1.7,1.7,0.8,2.8l0.9,3.8l-2.2-0.3l-2.8-1.1c0-0.8,0.3-0.8,0.9-0.3c1.1,0.9,1.6,1.1,2.2,0.9c-0.8-0.9-0.8-1.7,0.6-2.8
		l0.5-0.3L235.7,516.6z M291,545.2l1.1-0.3l0.6,5h-1.1L291,545.2z M320.2,546.8l-0.6,1.1l-2.5-1.4L320.2,546.8z M269.6,531.1
		c-0.6,0.9-1.1,0.3-1.7-0.8c-1.1-1.4-1.9-1.4-2.8,0l-0.8-1.7C266.8,528.2,268.5,528.7,269.6,531.1 M260.5,538.9l0.5,3l-1.4-3H260.5z
		 M269.8,534.2l1.1,4.7c-1.1-0.6-1.7-1.4-1.4-1.9C269.8,535.6,269.8,534.8,269.8,534.2 M252.2,526.5c-0.6-1.9-0.3-2.8,0.3-2.5
		l1.4-0.3L252.2,526.5z M251.2,532.3c0.8,0,1.6-0.6,1.6-1.1c0-1.1-0.2-1.4-0.8-1.9h1.4l3.3-0.3c0.8,0,0.5,0.3-0.6,1.4
		c-1.1,0.8-2.2,1.1-3.3,0.8l3,7.4c-0.5-0.6-0.8-1.4-1.1-2.5c-0.3-1.1-0.8-1.9-1.7-2.2l-3,4.1h-0.2h0.2l-0.2-1.1
		c-0.6-1.1,0-1.9,1.6-1.9c-0.8-0.9-1.4-0.9-1.9-0.6l-0.3-2.2L251.2,532.3L251.2,532.3z M247.6,528.7l-0.8-0.8l2.8-3
		C249.8,525.9,249.2,527.3,247.6,528.7 M239.3,521.8l2.8,0.9l2.5,2.8L239.3,521.8z M278.6,547.4l-1.6,1.4l-1.1-2.8L278.6,547.4z
		 M231,526.8l0.9-1.1l0.5,2.8l-3.3,0.6l-0.3-6.1L231,526.8z M237.9,527.9l0.3,3l-3.3-4.4L237.9,527.9z M175.2,528.2
		c-0.5-1.7,0-3,1.7-4.1L175.2,528.2z M184.3,531.4l1.4,0.3c0.8,0.3,1.1,0.8,0.8,1.9l-1.9,0.3l0.9-1.1l-2.2-1.7L184.3,531.4z
		 M376.3,530.1l4.1,0.3l-3.8,1.7L376.3,530.1z M362.5,539.2c0.8-0.3,1.4-1.1,1.7-2.2c0.5-2.8,1.4-3.8,2.2-3.8v1.9
		c0,0.8,0.6,1.4,1.1,1.6l1.9-0.2c-1.1,1.6-2.2,2.5-3.8,2.8H362.5z M343.6,546c0-1.6,0.3-2.8,1.4-3.6c0.5-0.6,1.6-1.1,3-0.6l-1.7-3.8
		c1.4,0,2.2,0.6,2.2,1.9c0.3,1.4,0.9,2.5,1.4,2.5l4.1,0.3c0-0.3,0.3-0.6,0.8-0.6l0.6,0.6H354l-0.3,1.1l0.3,2.2
		c1.4-1.1,2.5-0.9,3.3,0.5c1.1,1.4,1.4,2.8,1.4,4.9l-3.6-4.6l-1.4,3l-0.2-2.8c-0.3-1.1-0.6-1.9-1.4-2.2l-5,3.3l0.3,1.1h2.2
		c-0.2,0.3-0.8,1.7-1.4,3.8l1.9,1.7l-3,0.6c0.9-1.4,1.1-3,0.9-4.7l-0.6-1.4l-0.9-0.5l0.6-0.6l-1.7-1.4l1.9-0.3
		c0.8-0.5,0.8-1.1,0.3-1.9L346,543L343.6,546z M354,537.2l3.3,1.7l-5-0.6L354,537.2l-15.7,6.6l0.8,2.2l0.6,2.8l-3-0.8l1.7-4.1
		L354,537.2z"/>
	<path class="st4" d="M192.8,492.9l-0.3,0.3l0.6,0.6L192.8,492.9z M250,538h-0.3H250z"/>
	<path class="st2" d="M100.4,420.3l-2.8-0.3h-0.6l-1.4-0.3l-25,2.2l-6.6,2.8c-3.9,1.6-6.9,3.3-9.4,5.2l-6,5.8l-1.1,1.1
		c3,8.8,13.8,17.3,32.7,25.3c15.7,6.9,30.8,11.6,45.6,13.5l-9.9-14c-3-4.7-5.2-9.1-6.9-13.5h1.7L100.4,420.3z"/>
	<polygon class="st2" points="95.7,419.8 97.1,420.1 97.7,419.8 	"/>
	<polygon class="st1" points="111.4,448.1 110.9,448.1 112,449.2 	"/>
	<polygon class="st3" points="366.1,475.9 368.3,476.7 368.8,475.6 	"/>
	<path class="st0" d="M376.3,101.6v-1.4l-1.4,1.1l-0.6,0.6l2.2,1.7L376.3,101.6z M368,99.9l-0.6,1.7c0.9-0.3,1.1-1.1,0.9-1.9
		L368,99.9z M431.8,132.4l-0.6-4.7C429.4,128.8,429.4,130.2,431.8,132.4 M420.8,130.5l-0.3-1.9l-0.8,1.1L420.8,130.5z"/>
	<path class="st5" d="M324,257.8c2.2-3.3,4.9-6,8.8-8.8l-15.4-0.8c-1.9,3-3.8,7.2-5.2,12.7l-28.6,104.8c-1.7,5.5-2.2,10.7-1.7,15.9
		c0.5,5.5,2.5,9.6,5.5,12.7l-31.6-2.2c-6.6-0.5-10.4-3.8-11.5-9.9c-6.1,6.9-14.9,9.6-26.1,8.5c-6.1-0.5-11.6-2.5-17.1-5.7
		c-3.3-1.7-6.3-4.4-9.1-7.2l1.1,1.9c3.6,6.4,8.5,11.6,14.6,15.1c5.5,3,11.3,5,17.4,5.5c11,1.1,19.8-1.6,25.9-8.3
		c1.1,6.4,4.9,9.4,11.5,9.6l31.9,2.2c-3.3-3-5.2-7.2-5.8-12.4c-0.5-5.2,0-10.4,1.7-15.9l28.6-104.8
		C320.5,265.2,322.1,260.8,324,257.8"/>
	<path class="st4" d="M312.2,260.8c1.4-5.5,3.3-9.6,5.2-12.6v-0.3c1.9-3,5-6.1,8.8-8.5l-33.3-2.2c-7.4-0.6-12.4,3.3-14.6,11.3
		c-0.6-4.4-2.8-7.4-7.2-10.2c-3.3-1.9-7.2-3-11.5-3.3c-12.4-1.4-24,1.4-35.2,8.5c-16.8,11-29.7,31.1-38.8,60.2
		c-8.5,28.3-8.3,50.6,0.8,66.3c1.7,2.8,3.6,5.3,5.5,7.7c2.8,2.8,5.8,5.5,9.1,7.1c5.5,3.3,11,5.3,17,5.8c11.3,1.1,20.1-1.7,26.1-8.5
		c1.1,6.1,4.9,9.4,11.5,9.9l31.6,2.2c-3-3-4.9-7.2-5.5-12.7c-0.5-5.2,0-10.4,1.7-15.9L312.2,260.8z M261.9,260c3,0,5.2,1.4,6.9,3.3
		c1.4,1.9,1.9,4.1,1.7,6.6l-0.6,2.5l-21.2,75.9c-1.7,6.4-3.8,10.7-6.4,13.2c-3,3.3-7.1,4.6-12.6,4.1l-2.5-0.6
		c-3.8-1.7-6.6-6.3-7.4-14.3c-1.1-9.1,0-21.4,3.3-37.1c3.3-15.1,8.8-28.1,16.8-38.5C247.6,264.4,254.7,259.4,261.9,260"/>
	<path class="st5" d="M268.7,263.3c-1.7-1.9-3.8-3.3-6.9-3.3c-7.2-0.5-14.3,4.4-22,15.1c-8,10.5-13.5,23.4-16.8,38.5
		c-3.3,15.7-4.4,28.1-3.3,37.1c0.8,8,3.6,12.6,7.4,14.3l-0.8-4.4c-1.1-9.1,0-21.5,3.6-37.1c3-15.1,8.5-28.1,16.5-38.8
		c7.7-10.4,15.1-15.7,22.3-15.1l1.7,0.3C270.7,267.4,270.1,265.2,268.7,263.3"/>
	<path class="st4" d="M350.7,241c-3.8-0.6-7.2,0.6-10.2,2.5c-3,1.9-5,5-6.1,8.8l-28.6,101.5c-2.2,10.2-2.2,18.7,0.6,25.9
		c1.6,4.1,3.8,7.4,6.9,9.9c3,2.8,6.8,4.7,11.5,6.1c22.8,6,39.6,2.8,50-10.7c0.3,5.9-0.9,11.8-3.6,17l-1.1,2.2
		c-3,5.5-7.4,10.2-12.9,13.8c-6,3.8-13.5,5.2-22.8,4.4l-23.1-4.7c-6.9-1.6-12.4-1.1-16.8,0.9c-3.8,1.9-6.6,5.2-7.4,9.9l-6.6,25
		l9.3-0.8c9.6-0.9,19.5,0,29.7,1.9l15.7,3.3l16.5,1.4c12.9,0,23.7-4.1,31.9-11.8c9.9-9.4,18.7-25.3,25.6-48.1l33.8-130.1
		c1.4-5.2,3.3-9.6,5.5-12.6c1.9-3.3,4.7-6.4,8.5-8.8l-33-2.2c-3.5-0.3-7,0.7-9.9,2.8c-3,1.9-4.9,4.9-6.3,8.8L382.6,348
		c-1.7,8.3-4.1,14.3-7.2,17.6c-3.8,4.4-9.9,6.3-17.6,5.7l-5.5-1.1c-4.1-1.7-6.4-4.9-6.6-9.9c-0.6-3.6,0.5-9.1,2.5-16.5l21.4-79.2
		c1.4-5.5,3.3-9.9,5.2-12.9c1.9-3.3,5-6,8.5-8.8L350.7,241z"/>
	<path class="st5" d="M390.3,252.9l-15.4-1.1c-1.9,3-3.8,7.4-5.2,12.9l-21.4,79.2c-1.9,7.4-3,12.9-2.5,16.5c0.2,4.9,2.5,8.2,6.6,9.9
		c-0.3-3.8,0.5-9.3,2.5-16.5l21.4-79.5c1.4-5.5,3.3-9.9,5.2-12.9C383.4,258.1,386.5,255.3,390.3,252.9 M448.6,256.4
		c-2.2,3-4.1,7.4-5.5,12.7l-33.8,130.1c-6.9,22.8-15.7,38.8-25.6,48.1c-8.3,7.7-19,11.8-31.9,11.8l-16.5-1.4l-15.7-3.3
		c-10.2-1.9-20.1-2.8-29.7-1.9l-2.7,10.4c12.6-1.9,25.6-1.4,39,1.1l15.7,3.3l16.5,1.4l6.9-0.3c9.9-1.4,18.5-5.2,25.3-11.5
		c9.9-9.3,18.1-25.3,25.3-47.9L449.7,279c1.7-5.5,3.6-9.9,5.5-12.9c1.9-3.3,5-6.1,8.5-8.8L448.6,256.4z"/>
	<path class="st5" d="M371.3,401.9c2.7-5.3,3.9-11.1,3.6-17c-10.4,13.5-27.2,16.7-50,10.7c-4.6-1.4-8.5-3.3-11.5-6.1
		c3,8,9.1,13.2,18.1,15.7c15.9,4.1,28.9,3.8,38.8-1.1L371.3,401.9z"/>
	<path class="st4" d="M467.6,203.1l-3.6,0.6c-1.4,0.5-2.2,1.6-2.5,3.6l-6.6,24.8c-1.7,5.2-0.3,7.7,3.6,6.6l4.1-1.7
		c4.9-2.2,9.9-5.5,14.8-9.6c4.9-4.4,8.5-8.5,10.7-13.5l1.9-5.2l0.6-3c-0.3-0.5-1.4-0.8-3.3-1.1L467.6,203.1z"/>
	<path class="st5" d="M462.6,236.9l-1.1,4.7c-1.4,5.5-0.3,7.7,3.6,6.6c3.6-1.1,7.2-2.8,10.7-5l8.5-6.3c3-2.5,5.5-5.5,8-9.1
		c2.2-3.6,3.8-6.6,4.4-9.6l0.5-2.8c-0.2-0.6-1.4-0.9-3-1.1l-6.1-0.6c-2.2,4.9-5.8,9.1-10.7,13.5
		C472.5,231.4,467.6,234.7,462.6,236.9"/>
	<path class="st4" d="M509.7,251.2c-14.8-1.1-25-0.8-30.8,0.6c-8,2.2-14.6,7.4-20.1,16.2c-5.5,8.8-6.6,19-3.3,30.5
		c2.8,10.7,8.5,20.3,17,28.9l18.7,19.8c4.1,5.7,4.7,12.1,2.2,18.7c-3.3,8-10.7,11.5-22.6,10.7l-25-1.7c-7.2-0.5-12.1,2.8-14.6,9.9
		c-1.1,3-2.8,8.8-5.2,17.9l9.1,0.5l46.4,2.8l17.1-1.4c12.9-2.2,23.4-8.2,30.8-17.9c6.4-8,9.9-17.3,11.3-28.8
		c0.6-6.9-1.1-14.6-5.2-22.6l-0.3-0.3c-3.8-6.8-9.3-13.7-16.8-20.6l-15.4-13.2l-1.4-1.1c-4.4-4.4-6.1-8.8-5.8-13.2
		c0.8-6.6,4.9-9.6,12.1-9.3l25,1.7c6.9,0.5,11.2-3.3,13.8-11.3l1.4-5.2l2.5-9.1L509.7,251.2z"/>
	<path class="st5" d="M548.2,262.8l-1.4,5.2c-2.5,8-6.9,11.8-13.8,11.3l-25-1.7c-7.2-0.3-11.3,2.8-12.1,9.3
		c-0.3,4.4,1.4,8.8,5.8,13.2l1.4,1.1c-0.6-1.4-0.6-3-0.3-4.6c0.8-6.6,4.6-9.6,11.8-9.1l25,1.7c4.9,0.3,8.5-1.7,11-5.5
		c1.1-1.7,1.9-3.6,2.8-6l4.1-14.3L548.2,262.8z M542.1,345.2c-1.9-3.6-4.4-6.9-6.9-10.2l0.3,0.2c4.1,8,5.8,15.7,5.2,22.6
		c-1.4,11.5-4.9,20.9-11.3,28.9c-7.4,9.6-17.8,15.7-30.8,17.8l-17,1.4l-46.5-2.8l-2.5,9.4l55.6,3.3l17-1.7
		c12.9-2.2,23.4-8,30.8-17.8c6.3-7.7,9.9-17.4,11.2-28.4C547.9,360.7,546.2,352.9,542.1,345.2"/>
	<path class="st4" d="M209.3,186.6l-37.1-2.2c-13.2-0.9-21.7,5.5-25.6,19L80.9,437.7l10.2-2.8c6.3-1.4,12.4-2.5,17.9-2.8l37.7,1.4
		c13.2,1.6,32.2,6,56.9,13.2l24.2,6.9l16.3,3.6c6.8,0.6,12.1-0.5,15.9-3.3c3.6-2.5,5.8-6.4,7.1-12.1l3.6-13.7l3.3-13.5
		c-5.6,2.8-11.7,4.4-17.9,4.7c-6.9,0-16-1.1-26.7-3.8l-16.7-5.2c-9.6-3.6-16.3-5.8-20.6-7.2c-14.8-4.7-28.9-7.2-41.8-7.7h-9.1
		c5.8-22.6,22.5-83.1,50.6-181.8c2.5-6.9,5.5-12.7,9.3-18.2C203.5,192.1,206.3,189,209.3,186.6"/>
	<path class="st5" d="M201.1,195.4c-3.9,5.5-6.9,11.2-9.4,18.1c-28,98.8-44.8,159.2-50.6,181.8h9.1c7.4-27.8,23.4-85.3,48.1-172.2
		c4.1-11.2,10.2-20.3,17.6-26.9L201.1,195.4z M227.8,453.6l-24.2-6.9c-24.8-7.2-43.7-11.5-56.9-13.2l-37.7-1.4
		c-5.5,0.3-11.5,1.4-17.9,2.8l-3.6,12.6c10.2-3,19.5-4.9,28.1-5.7l4.6-0.3l33,1.7c13.2,1.7,32.2,6.3,56.6,13.2
		c23.4,6.9,37.1,10.2,41,10.4c6.6,0.6,11.8-0.5,15.7-3.3c3.6-2.2,5.7-6.4,7.1-11.9l7.2-27.2c-3.3,1.7-6.9,2.8-10.2,3.6l-3.6,13.8
		c-1.4,5.7-3.6,9.6-7.2,12.1c-3.8,2.8-9.1,3.8-15.9,3.3L227.8,453.6z"/>
	<path class="st0" d="M193.9,151.3l0.6,0.3l-0.3-0.8L193.9,151.3z M180.5,157.4l-0.6-0.6l0.3,0.6H180.5z"/>
	<path class="st4" d="M200.5,488.3l0.6,0.6l-0.3-0.9L200.5,488.3z M255.5,532v-0.3l-0.3,0.3H255.5z"/>
	<path class="st6" d="M384.8,244.3l-32.7-2.2 M352.1,242.1c-3.8-0.3-7.2,0.6-10.2,2.5c-2.9,2.3-5,5.5-6,9.1 M335.8,253.6L307.5,356
		 M307.5,356c-2.2,10.2-2.2,19,0.5,26.1c1.7,3.8,3.8,7.4,6.9,9.9c2.8,2.8,6.6,4.9,11.3,6c22.8,6.4,39.6,2.8,50-10.7
		c0.3,5.8-1.1,11.6-3.6,17.4 M372.7,404.7l-1.1,2.2 M371.6,406.9c-3,5.5-7.4,10.2-13.2,13.8c-5.7,3.8-13.2,5.5-22.5,4.4 M335.8,425
		l-22.8-4.7 M313,420.3c-6.9-1.7-12.4-1.1-16.5,0.8c-4.1,1.9-6.6,5.3-7.7,9.9 M288.8,431l-6.3,25.3l9.1-0.9 M291.5,455.5
		c9.6-0.5,19.5,0,29.7,1.9 M321.3,457.5l15.7,3.3l16.2,1.4 M353.2,462.1c12.9,0,23.7-4.1,31.9-11.8c9.9-9.3,18.1-25.6,25.3-48.4
		 M410.4,401.9l33.8-131.2 M444.2,270.7c1.4-5.5,3-9.9,5.2-12.9 M449.4,257.8v-0.2 M449.4,257.5c1.9-3,4.7-6.1,8.5-8.8 M457.9,248.7
		l-32.7-1.9 M425.2,246.8c-3.8-0.3-7.1,0.5-9.9,2.5c-3.1,2.2-5.3,5.4-6.4,9.1 M409,258.3l-25,91.9 M384,350.2
		c-1.9,8.5-4.4,14.3-7.2,17.8c-4.1,4.1-9.9,6.1-17.6,5.8 M359.2,373.8l-5.5-1.1 M353.7,372.8c-3.8-1.7-6.4-4.9-6.6-10.2
		c-0.3-3.6,0.5-9.1,2.5-16.5 M349.6,346.1l21.2-80.1 M370.8,266c1.7-5.5,3.3-9.9,5.5-12.9 M376.3,253.1v-0.3 M376.3,252.8
		c2.2-3.4,5.1-6.4,8.5-8.5 M459.6,269.3c5.5-8.8,12.1-14.3,19.8-16.2c5.7-1.4,16.2-1.7,30.8-0.8 M510.2,252.3l41,2.7l-4.1,14.3
		 M547.1,269.3c-2.2,8-6.9,11.8-13.5,11.6 M533.6,280.9l-25-1.6 M508.6,279.3c-7.2-0.6-11,2.8-11.8,9.1c-0.6,4.7,1.4,9.3,5.5,13.5
		 M502.2,301.8l16.7,14.6 M519,316.4c7.2,6.9,12.7,13.8,16.5,20.6 M535.5,337l0.3,0.6 M535.8,337.6c4.4,8,6.1,15.7,5.2,22.8
		c-1.1,11-4.9,20.6-11,28.9c-7.4,9.9-17.8,15.9-30.8,18.2 M499.2,407.4l-16.8,1.4l-55.3-3.3 M427.2,405.5c2.2-9.3,4.1-15.1,4.9-18.2
		c2.8-6.9,7.4-10.4,14.6-10.2 M446.7,377.2l25,1.9 M471.7,379.1c11.9,0.6,19.3-2.8,22.3-11c2.8-6.6,1.9-12.9-2.2-19 M491.8,349.1
		l-18.4-19.8 M473.4,329.3c-8.5-8.8-14.3-18.4-17-29.2c-3.3-11.5-2.2-22,3.3-30.8 M193.9,214.6c-27.8,99.6-44.5,160.6-50.3,183.2
		 M143.6,397.8h9.1 M152.7,397.8c12.9,0.5,26.7,3.3,41.6,8c4.4,1.1,11.3,3.6,20.6,7.1 M214.8,412.9l16.7,5.2 M231.6,418.1
		c10.5,2.8,19.5,3.8,26.4,3.8c6.2-0.3,12.3-1.9,17.9-4.7 M275.9,417.3l-6.9,27.5 M269,444.8c-1.4,5.8-3.8,9.9-7.2,12.1
		c-3.8,2.8-9.1,3.8-15.9,3.6c-2.8-0.3-8.5-1.4-15.9-3.6 M230,456.9l-24.2-7.1 M205.7,449.8c-24.7-7.2-43.4-11.6-56.6-13.5
		 M149.1,436.3l-37.4-1.4 M111.7,434.9c-5.5,0.6-11.5,1.7-17.8,3 M93.8,437.9l-10.2,2.8l65.5-236.5 M149.1,204.2
		c3.8-13.5,12.4-19.8,25.3-19 M174.4,185.2l36.9,1.9 M211.2,187.1c-2.8,2.8-5.5,5.9-8,9.1c-3.8,5.2-6.9,11.2-9.3,18.4 M241.8,276.5
		c7.7-10.7,14.8-15.7,22-15.1c3,0,5.2,1.4,6.6,3.3c1.4,1.9,2.2,4.1,1.9,6.9 M272.3,271.5l-0.6,2.2l-21.2,76.7 M250.6,350.5
		c-1.6,6.4-3.8,10.7-6.3,13.5c-3,3-7.2,4.4-12.4,4.1 M231.9,368.1l-2.8-0.8 M229.1,367.2c-3.8-1.7-6.3-6.3-7.2-14.3
		c-1.1-9.3,0-21.7,3-37.4c3.3-15.4,9.1-28.3,16.8-39 M188.1,305.6c-8.8,28.6-8.3,50.9,0.6,66.8c1.7,2.8,3.6,5.2,5.5,7.4
		c2.6,2.9,5.7,5.4,9.1,7.4c5.2,3.3,11,5.3,17.1,5.8c11.2,1.1,19.8-1.7,25.9-8.5c1.1,6.4,4.9,9.6,11.5,9.9 M257.7,394.5l31.6,2.2
		 M289.4,396.7c-3.3-3-5.2-7.1-5.8-12.6c-0.5-5,0-10.4,1.7-15.9 M285.2,368.1l28.3-105.9 M313.6,262.2c1.7-5.5,3.3-9.6,5.2-12.9
		 M318.8,249.3h0.3 M319.1,249.3c1.9-3.3,5-6.1,8.5-8.8 M327.6,240.5l-32.7-2.2 M294.9,238.3c-7.4-0.3-12.4,3.3-14.8,11.3
		c-0.3-4.1-2.8-7.4-6.9-9.9c-3.6-2.2-7.4-3.3-11.6-3.6c-12.4-1.4-24.2,1.4-35.2,8.8c-16.5,11-29.4,31.4-38.2,60.8 M464.8,204.5
		c-1.4,0.5-2.2,1.9-2.5,3.8 M462.4,208.3l-6.6,24.8 M455.8,233.1c-1.7,5.5-0.3,7.7,3.6,6.6l4.1-1.7c5-2.2,9.9-5.5,14.8-9.6
		c5-4.4,8.5-8.8,10.7-13.5 M489,214.9l1.9-5.5 M491,209.4c0.3-1.7,0.3-2.5,0.3-3c-0.3-0.5-1.1-0.8-3-1.1 M488.2,205.3l-19.8-1.4
		l-3.6,0.6"/>
</g>
</svg>
